<svg xmlns="http://www.w3.org/2000/svg" width="100%" height="100%" viewBox="0 0 150 40" fill="none" preserveAspectRatio="xMidYMid meet" aria-hidden="true" role="img">
    <path d="M49.6157 25.6452V13.9702C49.6157 13.0341 50.3746 12.2752 51.3108 12.2752H59.9348V14.8678H52.565V18.4925H59.7155V21.0859H52.565V24.7476H59.9348V27.3402H51.3108C50.3746 27.3402 49.6157 26.5813 49.6157 25.6452Z" fill="#F7F4E7"></path>
    <path d="M71.622 27.34L65.3037 12.2742H67.4875C68.1861 12.2742 68.8129 12.7027 69.0663 13.3534L72.7905 22.8932L76.5067 13.3541C76.7601 12.7034 77.3868 12.2742 78.0862 12.2742H80.2598L73.9409 27.34H71.622Z" fill="#F7F4E7"></path>
    <path d="M92.0271 27.6327C90.9741 27.6327 89.9878 27.4315 89.0691 27.0292C88.1497 26.6276 87.3429 26.0698 86.6493 25.3545C85.955 24.6392 85.4118 23.8083 85.0196 22.8621C84.6268 21.915 84.4307 20.8998 84.4307 19.8162C84.4307 18.7334 84.6268 17.7181 85.0196 16.7711C85.4118 15.8248 85.955 14.994 86.6493 14.2787C87.3429 13.5633 88.1497 13.0048 89.0691 12.6032C89.9878 12.2016 90.9741 12.0004 92.0271 12.0004C93.0801 12.0004 94.0664 12.2016 94.9858 12.6032C95.9045 13.0048 96.7113 13.5633 97.4049 14.2787C98.0992 14.994 98.6424 15.8248 99.0346 16.7711C99.4275 17.7181 99.6235 18.7334 99.6235 19.8162C99.6235 20.8998 99.4275 21.915 99.0346 22.8621C98.6424 23.8083 98.0992 24.6392 97.4049 25.3545C96.7113 26.0698 95.9045 26.6276 94.9858 27.0292C94.0664 27.4315 93.0801 27.6327 92.0271 27.6327ZM92.0271 24.7837C92.672 24.7837 93.2624 24.6617 93.7984 24.4184C94.3344 24.1751 94.8013 23.8309 95.2 23.3864C95.5987 22.9427 95.9059 22.4161 96.1224 21.8068C96.3381 21.1982 96.4463 20.5345 96.4463 19.8162C96.4463 19.0922 96.3381 18.4269 96.1224 17.8212C95.9059 17.2156 95.5987 16.6905 95.2 16.2468C94.8013 15.8023 94.3344 15.4581 93.7984 15.2148C93.2624 14.9715 92.672 14.8495 92.0271 14.8495C91.388 14.8495 90.8005 14.9715 90.2653 15.2148C89.7293 15.4581 89.2638 15.8023 88.868 16.2468C88.4722 16.6905 88.1664 17.2156 87.95 17.8212C87.7343 18.4269 87.6261 19.0922 87.6261 19.8162C87.6261 20.5345 87.7343 21.1982 87.95 21.8068C88.1664 22.4161 88.4722 22.9427 88.868 23.3864C89.2638 23.8309 89.7293 24.1751 90.2653 24.4184C90.8005 24.6617 91.388 24.7837 92.0271 24.7837Z" fill="#F7F4E7"></path>
    <path d="M106.301 27.34V12.2742H107.555C108.491 12.2742 109.25 13.0331 109.25 13.97V24.7473H114.692V27.34H106.301Z" fill="#F7F4E7"></path>
    <path d="M125.172 27.34L118.854 12.2742H121.037C121.736 12.2742 122.363 12.7027 122.616 13.3534L126.34 22.8932L130.056 13.3541C130.31 12.7034 130.937 12.2742 131.636 12.2742H133.81L127.491 27.34H125.172Z" fill="#F7F4E7"></path>
    <path d="M139.683 25.6452V13.9702C139.683 13.0341 140.442 12.2752 141.378 12.2752H148.307C149.243 12.2752 150.002 13.0341 150.002 13.9702V14.8678H142.632V18.4925H149.782V21.0859H142.632V24.7476H150.002V25.6452C150.002 26.5813 149.243 27.3402 148.307 27.3402H141.378C140.442 27.3402 139.683 26.5813 139.683 25.6452Z" fill="#F7F4E7"></path>
    <path d="M16.4253 0.269616L1.00802 9.16966C0.38418 9.52914 0 10.1944 0 10.9141V28.7192C0 29.4389 0.38418 30.1042 1.00802 30.4644L16.4253 39.3637C17.0484 39.7239 17.8168 39.7239 18.4399 39.3637L33.8572 30.4644C34.481 30.1042 34.8652 29.4389 34.8652 28.7192V10.9141C34.8652 10.1944 34.481 9.52914 33.8572 9.16966L18.4399 0.269616C17.8168 -0.0898719 17.0484 -0.0898719 16.4253 0.269616ZM32.2631 28.3801L17.4326 36.9403L2.60211 28.3801V11.2532L17.4326 2.69307L32.2631 11.2532V28.3801Z" fill="#FD663A"></path>
    <path d="M28.3647 21.1143V13.5041L17.4305 7.18797L6.48975 13.5041V16.5673H9.09186V15.0066L17.4305 10.1931L25.7626 15.0066V18.5122H6.48975V26.1297L17.4305 32.4451L28.3647 26.1297V23.1311L17.4305 29.4399L9.09186 24.6271V21.1143H28.3647Z" fill="#FD663A"></path>
</svg>